# ProBuilder 4.5.2
# https://unity3d.com/unity/features/worldbuilding/probuilder
# 1/24/2022 6:09:35 PM

mtllib ./Doorway.mtl
o Doorway

g Wall_Hole (3)
v -1.728512E-06 -1.49075E-07 -10.75
v -1.000002 -8.946989E-08 -10.75
v -1.04306E-06 1.5 -10.75
v -1.000001 1.5 -10.75
v -1.000017 -8.954368E-08 -20.75001
v -1.674888E-05 -1.491488E-07 -20.75001
v -1.000018 1.5 -20.75001
v -1.797077E-05 1.5 -20.75001
v -1 0 -15
v -1 1 -15
v 0 0 -15
v 0 1 -15
v -2.443774E-06 4.000002 -10.75
v -1.000003 4.000002 -10.75
v -1 4 -15
v 0 4 -15
v -1 0 -17.5
v -1 1 -17.5
v 0 1 -17.5
v 0 0 -17.5
v -1.000018 4.000002 -20.75001
v -1.746414E-05 4.000002 -20.75001
v 0 4 -17.5
v -1 4 -17.5

vt -1.728512E-06 -1.49075E-07
vt -1.000002 -8.946989E-08
vt -1.04306E-06 1.5
vt -1.000001 1.5
vt 1.000017 -8.954368E-08
vt 1.000018 1.5
vt -10.75001 1.754355E-07
vt -15 2.649031E-07
vt -15 1
vt -10.75001 1.500001
vt 15 3.983443E-12
vt 10.75 -1.490725E-07
vt 10.75 1.5
vt 15 1
vt 2.443774E-06 -10.75
vt 1.000003 -10.75
vt 1 -15
vt 0 -15
vt -1 -15
vt -1.000002 -10.75
vt 0 -15
vt -17.5 2.649021E-07
vt -17.5 1
vt -20.75001 1.753615E-07
vt -20.75001 1.500001
vt 17.5 1
vt 17.5 4.64735E-12
vt 20.75001 1.5
vt 20.75001 -1.491459E-07
vt 1.000018 -20.75001
vt 1.746414E-05 -20.75001
vt 0 -17.5
vt 1 -17.5
vt 1 -15
vt -1.000017 -20.75001
vt -1 -17.5
vt 1.000018 4.000002
vt 1.746414E-05 4.000002
vt 20.75001 4.000002
vt 17.5 4
vt -17.50001 4
vt -20.75001 4.000002
vt 0 1
vt -1 1
vt -1 4
vt 1 1
vt 15 4
vt 10.75 4.000002
vt -10.75 4.000002
vt -15 4

vn 0 0 1
vn 0 0 -1
vn -1 2.384185E-07 -3.926899E-07
vn 1 0 4.067091E-07
vn 0 1 -4.487884E-07
vn -2.980257E-08 -1 -2.806416E-08

usemtl M_Concrete
f 3/3/1 4/4/1 2/2/1 1/1/1
f 7/6/2 8/3/2 6/1/2 5/5/2
f 4/10/3 10/9/3 9/8/3 2/7/3
f 11/11/4 12/14/4 3/13/4 1/12/4
f 14/16/5 13/15/5 16/18/5 15/17/5
f 11/21/6 1/15/6 2/20/6 9/19/6
f 10/9/3 18/23/3 17/22/3 9/8/3
f 18/23/3 7/25/3 5/24/3 17/22/3
f 20/27/4 19/26/4 12/14/4 11/11/4
f 6/29/4 8/28/4 19/26/4 20/27/4
f 24/33/5 23/32/5 22/31/5 21/30/5
f 10/34/5 12/21/5 19/32/5 18/33/5
f 6/31/6 20/32/6 17/36/6 5/35/6
f 20/32/6 11/21/6 9/19/6 17/36/6
f 21/37/2 22/38/2 8/3/2 7/6/2
f 22/39/4 23/40/4 19/26/4 8/28/4
f 24/41/3 21/42/3 7/25/3 18/23/3
f 23/38/1 24/45/1 18/44/1 19/43/1
f 15/37/2 16/38/2 12/43/2 10/46/2
f 16/47/4 13/48/4 3/13/4 12/14/4
f 14/49/3 15/50/3 10/9/3 4/10/3
f 13/38/1 14/45/1 4/4/1 3/3/1

