# ProBuilder 4.5.2
# https://unity3d.com/unity/features/worldbuilding/probuilder
# 1/24/2022 6:12:40 PM

mtllib ./Demonstration_Wall.mtl
o Demonstration_Wall

g AO_Silenced
v -6.198883E-06 0 1.182581
v -0.6849875 0 1.182581
v -6.198883E-06 4 1.182581
v -0.6849875 4 1.182581
v -0.684988 0 -1.192421
v -0.684988 4 -1.192421
v -5.722046E-06 0 -1.192421
v -5.722046E-06 4 -1.192421

vt -6.198883E-06 0
vt -0.6849875 0
vt -6.198883E-06 4
vt -0.6849875 4
vt 1.182581 0
vt -1.192421 0
vt 1.182581 4
vt -1.192421 4
vt 0.684988 0
vt 0.684988 4
vt 1.192421 0
vt -1.182581 0
vt 1.192421 4
vt -1.182581 4
vt 6.198883E-06 1.182581
vt 0.6849875 1.182581
vt 5.722046E-06 -1.192421
vt 0.684988 -1.192421
vt -0.684988 -1.192421
vt -0.6849875 1.182581

vn 0 0 1
vn -1 0 2.007734E-07
vn 0 0 -1
vn 1 0 2.007734E-07
vn 0 1 0
vn 0 -1 0

usemtl M_Silenced
f 3/3/1 4/4/1 2/2/1 1/1/1
f 4/7/2 6/8/2 5/6/2 2/5/2
f 6/10/3 8/3/3 7/1/3 5/9/3
f 8/13/4 3/14/4 1/12/4 7/11/4
f 8/17/5 6/18/5 4/16/5 3/15/5
f 1/15/6 2/20/6 5/19/6 7/17/6

