# ProBuilder 4.5.2
# https://unity3d.com/unity/features/worldbuilding/probuilder
# 1/24/2022 6:07:08 PM

mtllib ./GlassBorder.mtl
o GlassBorder

g GlassBorder
v -0.09720854 0 13.75002
v -0.9972082 0 13.75
v -0.09720854 5.5 13.75002
v -0.9972082 5.5 13.75
v -1.007563 0 -59.74999
v -1.009845 5.5 -59.74999
v -0.1075638 0 -59.74998
v -0.109845 5.5 -59.74998

vt -0.09690256 0
vt -0.9969022 0
vt -0.09690256 5.5
vt -0.9969022 5.5
vt 13.74986 0
vt -59.75013 0
vt 13.74986 5.5
vt -59.75013 5.5
vt 1.00807 -2.100797E-07
vt 0.1080703 -2.100797E-07
vt 1.010351 5.5
vt 0.1103515 5.5
vt 59.75 4.112185E-05
vt -13.75 4.112185E-05
vt 59.75 5.500042
vt -13.75 5.500041
vt 0.09720854 13.75002
vt 0.9972082 13.75
vt 0.109845 -59.74998
vt 1.009845 -59.74999
vt -0.1075638 -59.74998
vt -1.007563 -59.74999
vt -0.09720854 13.75002
vt -0.9972082 13.75

vn -2.225241E-05 0 1
vn -1 0 0.0001408884
vn -0.9999999 -0.0004147616 0.000171925
vn 8.477109E-06 3.515979E-09 -1
vn 0.9999999 0.0004147616 -0.0001408883
vn 1 0.0002073808 -0.0001564066
vn 0 1 0
vn 0 -1 0

usemtl M_Glass
f 3/3/1 4/4/1 2/2/1 1/1/1
f 4/7/2 6/8/3 5/6/2 2/5/2
f 6/11/4 8/12/4 7/10/4 5/9/4
f 8/15/6 3/16/6 1/14/6 7/13/5
f 8/19/7 6/20/7 4/18/7 3/17/7
f 1/23/8 2/24/8 5/22/8 7/21/8

