# ProBuilder 4.5.2
# https://unity3d.com/unity/features/worldbuilding/probuilder
# 1/25/2022 8:13:52 AM

mtllib ./RadioMesh.mtl
o RadioMesh

g RadioMesh
v 0.4413167 -0.4000001 0.1000838
v -0.1711939 -0.4000001 0.1000839
v -0.1711939 0 0.1000839
v 0.4413167 0 0.1000838
v -0.1221926 -0.3288774 -0.04634742
v 0.3923155 -0.3288774 -0.04634693
v 0.3923155 -0.03200006 -0.04634693
v -0.1221926 -0.03200006 -0.04634742
v -0.2413146 -0.4000001 0.1000837
v -0.2413146 0 0.1000837
v -0.3586836 -0.4000001 0.1000842
v -0.3586818 0 0.1000835
v -0.3586824 0 -0.09991583
v -0.3586828 -0.4000001 -0.09991671
v -0.2413151 -0.4000001 -0.09991565
v -0.2413151 0 -0.09991565
v -0.1711945 -0.4000001 -0.09991549
v -0.1711945 0 -0.09991549
v -0.3586827 -0.4000001 0.04049396
v -0.3586827 0 0.04049396
v 0.4413175 -0.4000001 0.04049353
v 0.4413175 0 0.04049353
v -0.1711934 0 0.04049269
v -0.1711934 -0.4000001 0.04049269
v -0.2413158 0 0.04049326
v -0.2413158 -0.4000001 0.04049326
v -0.3586819 -0.4000001 -0.02971175
v -0.3586819 0 -0.02971175
v 0.4413161 0 -0.09991553
v 0.4413161 -0.4000001 -0.09991553
v 0.4413166 -0.4000001 -0.02971145
v 0.4413166 0 -0.02971145
v -0.1711939 0 -0.0297114
v -0.1711939 -0.4000001 -0.0297114
v -0.2413163 0 -0.02971082
v -0.3711945 0.4000001 -0.02971132
v -0.3711957 0.4000001 0.0404935
v -0.4413164 0.4000001 0.04049334
v -0.4413169 0.4000001 -0.02971075
v -0.2413163 -0.4000001 -0.02971082
v -0.1221931 -0.03200006 -0.1000837
v -0.1221931 -0.3288774 -0.1000837
v 0.3923146 -0.3288774 -0.1000841
v 0.3923146 -0.03200006 -0.1000841

vt 0.4413168 -0.4000001
vt -0.1711937 -0.4000001
vt -0.1711937 0
vt 0.4413168 0
vt 0.1221926 -0.3288774
vt -0.3923154 -0.3288774
vt -0.3923154 -0.03200006
vt 0.1221926 -0.03200006
vt -0.2413144 -0.4000001
vt -0.2413144 0
vt -0.3586835 -0.4000001
vt -0.3586817 0
vt 0.358683 -1.098009E-07
vt 0.3586833 -0.4000002
vt 0.2413157 -0.4000002
vt 0.2413157 -1.098014E-07
vt 0.171195 -0.4000002
vt 0.171195 -1.098017E-07
vt 0.1000829 -0.4000006
vt 0.04049267 -0.4000006
vt 0.04049267 -5.344822E-07
vt 0.1000822 -5.344812E-07
vt -0.04049445 -0.4000001
vt -0.1000847 -0.4000001
vt -0.1000847 0
vt -0.04049445 0
vt -0.4413175 0.04049353
vt -0.4413167 0.1000838
vt 0.1711939 0.1000839
vt 0.1711934 0.04049269
vt -0.1711934 0.04049269
vt -0.1711939 0.1000839
vt 0.4413167 0.1000838
vt 0.4413175 0.04049353
vt 0.2413158 0.04049326
vt 0.2413146 0.1000837
vt 0.3586818 0.1000835
vt 0.3586827 0.04049396
vt -0.3586836 0.1000842
vt -0.2413146 0.1000837
vt -0.2413158 0.04049326
vt -0.3586827 0.04049396
vt -0.02971303 -0.4000006
vt -0.02971303 -5.344806E-07
vt -0.099918 -0.4000006
vt -0.09991712 -5.34481E-07
vt 0.09991461 0
vt 0.09991461 -0.4000001
vt 0.02971052 -0.4000001
vt 0.02971052 0
vt 0.1711945 -0.09991549
vt -0.4413161 -0.09991553
vt -0.4413166 -0.02971145
vt 0.1711939 -0.0297114
vt -0.1711945 -0.09991549
vt -0.1711939 -0.0297114
vt 0.4413166 -0.02971145
vt 0.4413161 -0.09991553
vt 0.3586824 -0.09991583
vt 0.2413151 -0.09991565
vt 0.2413163 -0.02971082
vt 0.3586819 -0.02971175
vt 0.3711945 -0.02971132
vt 0.3711957 0.0404935
vt -0.2413163 -0.02971082
vt -0.3586819 -0.02971175
vt -0.2413151 -0.09991565
vt -0.3586828 -0.09991671
vt 0.4413167 0.4000002
vt 0.3711942 0.4000002
vt 0.0297127 0.0765603
vt -0.04049139 0.0765603
vt 0.02971416 0.5237743
vt -0.04049067 0.523775
vt 0.04049132 0.1079201
vt -0.02971277 0.1079201
vt 0.04048977 0.555134
vt -0.02971431 0.555134
vt -0.371196 0.4
vt -0.4413167 0.4
vt 0.1708504 0
vt 0.1708504 -0.4000001
vt 0.1218487 -0.03200006
vt 0.1218487 -0.3288774
vt 0.1711945 -0.3997626
vt -0.4413161 -0.3997626
vt -0.4413161 -0.0005264533
vt 0.1711945 -0.0005264533
vt -0.3923146 -0.03252696
vt 0.1221931 -0.03252696
vt -0.4409697 -0.4000001
vt -0.4409697 0
vt -0.3919679 -0.3288774
vt -0.3919679 -0.03200006
vt 0.1000848 -0.03200006
vt 0.1000848 -0.3288774
vt 0.0463485 -0.03200006
vt 0.0463485 -0.3288774
vt 0.1221931 -0.1000837
vt -0.3923146 -0.1000841
vt 0.1221926 -0.04634742
vt -0.3923155 -0.04634693
vt 0.3923146 -0.1000841
vt -0.1221931 -0.1000837
vt 0.3923155 -0.04634693
vt -0.1221926 -0.04634742
vt -0.1000778 -0.3288774
vt -0.1000778 -0.03200006
vt -0.04634061 -0.3288774
vt -0.04634061 -0.03200006

vn 9.731203E-08 0 1
vn 9.557446E-07 0 -1
vn -1 2.235187E-06 9.185896E-11
vn 1 0 1.45035E-05
vn 0 1 0
vn 0 -1 0
vn 0.8944267 0.4472145 -6.834472E-06
vn -0.8944267 -0.4472146 7.214165E-06
vn -0.003433535 0 -0.9999941
vn -7.298381E-08 -0.002365561 -0.9999972
vn -7.298301E-08 0.005268985 -0.9999861
vn 0.003440829 0 -0.9999941

usemtl M_RadioOuter
f 3/3/1 2/2/1 1/1/1 4/4/1
f 10/10/1 9/9/1 2/2/1 3/3/1
f 12/12/1 11/11/1 9/9/1 10/10/1
f 16/16/2 15/15/2 14/14/2 13/13/2
f 18/18/2 17/17/2 15/15/2 16/16/2
f 19/20/3 11/19/3 12/22/3 20/21/3
f 4/25/4 1/24/4 21/23/4 22/26/4
f 3/29/5 4/28/5 22/27/5 23/30/5
f 21/34/6 1/33/6 2/32/6 24/31/6
f 12/37/5 10/36/5 25/35/5 20/38/5
f 10/36/5 3/29/5 23/30/5 25/35/5
f 19/42/6 26/41/6 9/40/6 11/39/6
f 26/41/6 24/31/6 2/32/6 9/40/6
f 28/44/3 27/43/3 19/20/3 20/21/3
f 13/46/3 14/45/3 27/43/3 28/44/3
f 32/50/4 31/49/4 30/48/4 29/47/4
f 22/26/4 21/23/4 31/49/4 32/50/4
f 33/54/5 32/53/5 29/52/5 18/51/5
f 23/30/5 22/27/5 32/53/5 33/54/5
f 30/58/6 31/57/6 34/56/6 17/55/6
f 31/57/6 21/34/6 24/31/6 34/56/6
f 35/61/5 16/60/5 13/59/5 28/62/5
f 25/35/5 35/61/5 28/62/5 20/38/5
f 35/61/5 33/54/5 18/51/5 16/60/5
f 38/34/5 37/64/5 36/63/5 39/57/5
f 27/66/6 40/65/6 26/41/6 19/42/6
f 27/66/6 14/68/6 15/67/6 40/65/6
f 34/56/6 24/31/6 26/41/6 40/65/6
f 17/55/6 34/56/6 40/65/6 15/67/6
f 39/69/2 36/70/2 33/18/2 35/16/2
f 36/73/7 37/74/7 23/72/7 33/71/7
f 38/77/8 39/78/8 35/76/8 25/75/8
f 37/79/1 38/80/1 25/10/1 23/3/1
f 41/83/9 42/84/9 17/82/9 18/81/9
f 42/5/10 43/6/10 30/86/10 17/85/10
f 44/89/11 41/90/11 18/88/11 29/87/11
f 43/93/12 44/94/12 29/92/12 30/91/12
f 8/97/4 5/98/4 42/96/4 41/95/4
f 5/101/5 6/102/5 43/100/5 42/99/5
f 7/105/6 8/106/6 41/104/6 44/103/6
f 6/109/3 7/110/3 44/108/3 43/107/3

usemtl M_RadioInner
f 7/7/2 6/6/2 5/5/2 8/8/2

